<svg xmlns="http://www.w3.org/2000/svg" width="1200" height="1500" viewBox="0 0 1200 1500" preserveAspectRatio="xMidYMid slice"><defs><linearGradient id="vg1" x1="0" x2="0" y1="0" y2="1"><stop offset="0" stop-color="#e9e8e4"/><stop offset="1" stop-color="#dfddd7"/></linearGradient><linearGradient id="vg2" x1="0" x2="0" y1="0" y2="1"><stop offset="0" stop-color="#dfddd7"/><stop offset="1" stop-color="#cfccc4"/></linearGradient><linearGradient id="vg3" x1="0" x2="0" y1="0" y2="1"><stop offset="0" stop-color="#3b465a"/><stop offset="1" stop-color="#252d3e"/></linearGradient><linearGradient id="dg4" x1="0" x2="1" y1="0" y2="1"><stop offset="0" stop-color="#8a5634"/><stop offset="1" stop-color="#5c3420"/></linearGradient><filter id="sh5" x="-50%" y="-50%" width="200%" height="200%"><feGaussianBlur stdDeviation="26.519999999999996"/></filter></defs><rect width="1200" height="930" fill="url(#vg1)"/><rect y="930" width="1200" height="570" fill="url(#vg2)"/>
  <rect y="929" width="1200" height="2" fill="#ffffff" opacity="0.25"/><ellipse cx="600" cy="1190.2" rx="561" ry="44.199999999999996" fill="#2a241c" opacity="0.28" filter="url(#sh5)"/>
  <path d="M328 680.2 C345 415 855 415 872 680.2" fill="none" stroke="url(#dg4)" stroke-width="37.4" stroke-linecap="round"/>
  <path d="M124 1129 Q90 899.5 175 670 L1025 670 Q1110 899.5 1076 1129 Q1065.8 1180 1008 1180 L192 1180 Q134.2 1180 124 1129 Z" fill="url(#vg3)"/>
  <path d="M175 707.4 L1025 707.4" stroke="#2d2a26" stroke-width="8.5"/>
  <path d="M175 707.4 L1025 707.4" stroke="#bfa57a" stroke-width="3.4" stroke-dasharray="5.1 5.1"/>
  <rect x="906" y="693.8" width="27.2" height="74.8" rx="6.8" fill="#bfa57a"/>
  <rect x="307.6" y="676.8" width="54.4" height="119" rx="10.2" fill="url(#dg4)"/>
  <rect x="838" y="676.8" width="54.4" height="119" rx="10.2" fill="url(#dg4)"/>
  <path d="M130.8 1112 Q107 899.5 181.8 683.6 L243 683.6 Q175 899.5 198.8 1163 Z" fill="url(#dg4)" opacity="0.92"/>
  <path d="M1069.2 1112 Q1093 899.5 1018.2 683.6 L957 683.6 Q1025 899.5 1001.2 1163 Z" fill="url(#dg4)" opacity="0.92"/>
  <path d="M294 950.5 q 102 34 238 -10.2" stroke="#232c3b" stroke-width="3.4" fill="none" opacity="0.4"/>
  <path d="M736 1027 q 85 -27.2 187 13.6" stroke="#596172" stroke-width="3.4" fill="none" opacity="0.35"/></svg>
