<svg xmlns="http://www.w3.org/2000/svg" width="1200" height="1500" viewBox="0 0 1200 1500" preserveAspectRatio="xMidYMid slice"><defs><linearGradient id="vg1" x1="0" x2="0" y1="0" y2="1"><stop offset="0" stop-color="#efebe4"/><stop offset="1" stop-color="#e6e0d6"/></linearGradient><linearGradient id="vg2" x1="0" x2="0" y1="0" y2="1"><stop offset="0" stop-color="#e6e0d6"/><stop offset="1" stop-color="#d9d1c4"/></linearGradient><linearGradient id="dg3" x1="0" x2="1" y1="0" y2="1"><stop offset="0" stop-color="#c99a68"/><stop offset="1" stop-color="#9a6a40"/></linearGradient><filter id="sh4" x="-50%" y="-50%" width="200%" height="200%"><feGaussianBlur stdDeviation="24.180000000000003"/></filter></defs><rect width="1200" height="930" fill="url(#vg1)"/><rect y="930" width="1200" height="570" fill="url(#vg2)"/>
  <rect y="929" width="1200" height="2" fill="#ffffff" opacity="0.25"/><ellipse cx="662" cy="1189.3" rx="325.5" ry="40.300000000000004" fill="#2a241c" opacity="0.28" filter="url(#sh4)"/>
  <g transform="rotate(-4 600 1180)">
  <rect x="383" y="513.5" width="465" height="682" rx="40.300000000000004" fill="#6f4a2c"/>
  <rect x="367.5" y="498" width="465" height="682" rx="40.300000000000004" fill="url(#dg3)"/>
  <path d="M395.4 606.5 q 12.4 170.5 -6.2 341 t 9.3 286.44" stroke="#7a4f2c" stroke-width="2.325" fill="none" opacity="0.15"/><path d="M426.87692307692305 606.5 q 12.4 170.5 -6.2 341 t 9.3 286.44" stroke="#7a4f2c" stroke-width="2.325" fill="none" opacity="0.22"/><path d="M458.3538461538461 606.5 q 12.4 170.5 -6.2 341 t 9.3 286.44" stroke="#7a4f2c" stroke-width="2.325" fill="none" opacity="0.29000000000000004"/><path d="M489.8307692307692 606.5 q 12.4 170.5 -6.2 341 t 9.3 286.44" stroke="#7a4f2c" stroke-width="2.325" fill="none" opacity="0.15"/><path d="M521.3076923076923 606.5 q 12.4 170.5 -6.2 341 t 9.3 286.44" stroke="#7a4f2c" stroke-width="2.325" fill="none" opacity="0.22"/><path d="M552.7846153846153 606.5 q 12.4 170.5 -6.2 341 t 9.3 286.44" stroke="#7a4f2c" stroke-width="2.325" fill="none" opacity="0.29000000000000004"/><path d="M584.2615384615384 606.5 q 12.4 170.5 -6.2 341 t 9.3 286.44" stroke="#7a4f2c" stroke-width="2.325" fill="none" opacity="0.15"/><path d="M615.7384615384615 606.5 q 12.4 170.5 -6.2 341 t 9.3 286.44" stroke="#7a4f2c" stroke-width="2.325" fill="none" opacity="0.22"/><path d="M647.2153846153846 606.5 q 12.4 170.5 -6.2 341 t 9.3 286.44" stroke="#7a4f2c" stroke-width="2.325" fill="none" opacity="0.29000000000000004"/><path d="M678.6923076923076 606.5 q 12.4 170.5 -6.2 341 t 9.3 286.44" stroke="#7a4f2c" stroke-width="2.325" fill="none" opacity="0.15"/><path d="M710.1692307692308 606.5 q 12.4 170.5 -6.2 341 t 9.3 286.44" stroke="#7a4f2c" stroke-width="2.325" fill="none" opacity="0.22"/><path d="M741.6461538461538 606.5 q 12.4 170.5 -6.2 341 t 9.3 286.44" stroke="#7a4f2c" stroke-width="2.325" fill="none" opacity="0.29000000000000004"/><path d="M773.123076923077 606.5 q 12.4 170.5 -6.2 341 t 9.3 286.44" stroke="#7a4f2c" stroke-width="2.325" fill="none" opacity="0.15"/><path d="M804.5999999999999 606.5 q 12.4 170.5 -6.2 341 t 9.3 286.44" stroke="#7a4f2c" stroke-width="2.325" fill="none" opacity="0.22"/>
  <rect x="547.3" y="550.7" width="105.4" height="40.300000000000004" rx="20.150000000000002" fill="#5c3c22" opacity="0.85"/>
  </g></svg>
