<svg xmlns="http://www.w3.org/2000/svg" width="1200" height="900" viewBox="0 0 1200 900" preserveAspectRatio="xMidYMid slice"><defs><linearGradient id="vg1" x1="0" x2="0" y1="0" y2="1"><stop offset="0" stop-color="#e3e6de"/><stop offset="1" stop-color="#d7dbd0"/></linearGradient><linearGradient id="vg2" x1="0" x2="0" y1="0" y2="1"><stop offset="0" stop-color="#d7dbd0"/><stop offset="1" stop-color="#c6cbbd"/></linearGradient><pattern id="wf3" width="18" height="18" patternUnits="userSpaceOnUse"><rect width="18" height="18" fill="#e2d6c2"/><rect x="3" y="3" width="12" height="12" rx="2" fill="#d2c7b4"/><rect x="4" y="4" width="10" height="4" rx="2" fill="#e4d8c6"/></pattern><filter id="sh4" x="-50%" y="-50%" width="200%" height="200%"><feGaussianBlur stdDeviation="14.819999999999999"/></filter><pattern id="ln5" width="6" height="6" patternUnits="userSpaceOnUse"><rect width="6" height="6" fill="#b9846a"/><path d="M0 1h6M0 4h6" stroke="#ae7c64" stroke-width="1"/><path d="M2 0v6" stroke="#bf8e76" stroke-width="1"/></pattern><radialGradient id="ps6" cx="0.4" cy="0.38" r="0.7"><stop offset="0" stop-color="#ffffff" stop-opacity="0.22"/><stop offset="0.7" stop-color="#000000" stop-opacity="0"/><stop offset="1" stop-color="#000000" stop-opacity="0.22"/></radialGradient><filter id="sh7" x="-50%" y="-50%" width="200%" height="200%"><feGaussianBlur stdDeviation="11.219999999999999"/></filter><linearGradient id="cg8" x1="0" x2="1" y1="0" y2="0">
    <stop offset="0" stop-color="#c2c1bd"/>
    <stop offset="0.22" stop-color="#efeeea"/>
    <stop offset="0.5" stop-color="#ecebe6"/>
    <stop offset="0.85" stop-color="#bdbcb8"/>
    <stop offset="1" stop-color="#a5a5a1"/></linearGradient><linearGradient id="vg9" x1="0" x2="0" y1="0" y2="1"><stop offset="0" stop-color="#82817f"/><stop offset="1" stop-color="#bdbcb8"/></linearGradient><filter id="sh10" x="-50%" y="-50%" width="200%" height="200%"><feGaussianBlur stdDeviation="7.919999999999999"/></filter></defs><rect width="1200" height="540" fill="url(#vg1)"/><rect y="540" width="1200" height="360" fill="url(#vg2)"/>
  <rect y="539" width="1200" height="2" fill="#ffffff" opacity="0.25"/><ellipse cx="420" cy="805.7" rx="285" ry="24.7" fill="#2a241c" opacity="0.28" filter="url(#sh4)"/><path d="M173 800 L173 744.9 Q173 733.5 188.2 733.5 L651.8 733.5 Q667 733.5 667 744.9 L667 800 Q420 807.6 173 800 Z" fill="url(#wf3)"/>
    <path d="M173 800 Q420 807.6 667 800" stroke="#aaa192" stroke-width="4.75" fill="none" opacity="0.6"/>
    <rect x="600.5" y="733.5" width="66.5" height="66.5" fill="#b9af9f" opacity="0.35"/><path d="M175.85000000000002 741.1 L175.85000000000002 686 Q175.85000000000002 674.6 191.05 674.6 L648.9499999999999 674.6 Q664.15 674.6 664.15 686 L664.15 741.1 Q420 748.7 175.85000000000002 741.1 Z" fill="url(#wf3)"/>
    <path d="M175.85000000000002 741.1 Q420 748.7 664.15 741.1" stroke="#aaa192" stroke-width="4.75" fill="none" opacity="0.6"/>
    <rect x="597.65" y="674.6" width="66.5" height="66.5" fill="#b9af9f" opacity="0.35"/><path d="M178.70000000000002 682.2 L178.70000000000002 627.1 Q178.70000000000002 615.7 193.9 615.7 L646.0999999999999 615.7 Q661.3 615.7 661.3 627.1 L661.3 682.2 Q420 689.8000000000001 178.70000000000002 682.2 Z" fill="url(#wf3)"/>
    <path d="M178.70000000000002 682.2 Q420 689.8000000000001 661.3 682.2" stroke="#aaa192" stroke-width="4.75" fill="none" opacity="0.6"/>
    <rect x="594.8" y="615.7" width="66.5" height="66.5" fill="#b9af9f" opacity="0.35"/><path d="M181.55 623.3 L181.55 568.1999999999999 Q181.55 556.8 196.75 556.8 L643.25 556.8 Q658.45 556.8 658.45 568.1999999999999 L658.45 623.3 Q420 630.9 181.55 623.3 Z" fill="url(#wf3)"/>
    <path d="M181.55 623.3 Q420 630.9 658.45 623.3" stroke="#aaa192" stroke-width="4.75" fill="none" opacity="0.6"/>
    <rect x="591.95" y="556.8" width="66.5" height="66.5" fill="#b9af9f" opacity="0.35"/>
  <path d="M178.70000000000002 573.9 Q420 541.6 661.3 573.9 L661.3 566.3 L178.70000000000002 566.3 Z" fill="#e5dac8" opacity="0.6"/><ellipse cx="820" cy="761.7" rx="196.35000000000002" ry="18.7" fill="#2a241c" opacity="0.28" filter="url(#sh7)"/><path d="M650 442.1 Q820 465.9 990 442.1 Q969.6 598.5 993.4 756.6 Q820 734.5 646.6 756.6 Q670.4 598.5 650 442.1 Z" fill="url(#ln5)"/><path d="M650 442.1 Q820 465.9 990 442.1 Q969.6 598.5 993.4 756.6 Q820 734.5 646.6 756.6 Q670.4 598.5 650 442.1 Z" fill="url(#ps6)"/>
  <path d="M650 442.1 Q820 465.9 990 442.1 Q969.6 598.5 993.4 756.6 Q820 734.5 646.6 756.6 Q670.4 598.5 650 442.1 Z" fill="none" stroke="#9d705a" stroke-width="2.55" stroke-dasharray="5.1 4.25" transform="translate(820 598.5) scale(0.93) translate(-820 -598.5)" opacity="0.5"/><ellipse cx="1050" cy="803.6" rx="109.36800000000001" ry="13.2" fill="#2a241c" opacity="0.28" filter="url(#sh10)"/>
  <ellipse cx="1050" cy="800" rx="88.2" ry="15.120000000000001" fill="#c2c1bd"/>
  <path d="M961.8 786.8 L961.8 800 A88.2 15.120000000000001 0 0 0 1138.2 800 L1138.2 786.8 Z" fill="url(#cg8)"/>
  <ellipse cx="1050" cy="786.8" rx="88.2" ry="15.120000000000001" fill="#eeede9"/>
  <path d="M966 602 L982.8 784.4 A67.2 13.440000000000001 0 0 0 1117.2 784.4 L1134 602 Z" fill="url(#cg8)"/>
  <ellipse cx="1050" cy="602" rx="84" ry="16.8" fill="#efefeb"/>
  <ellipse cx="1050" cy="604.4" rx="76.8" ry="12" fill="url(#vg9)"/></svg>
