<svg xmlns="http://www.w3.org/2000/svg" width="1200" height="900" viewBox="0 0 1200 900" preserveAspectRatio="xMidYMid slice"><defs><linearGradient id="vg1" x1="0" x2="0" y1="0" y2="1"><stop offset="0" stop-color="#e9e8e4"/><stop offset="1" stop-color="#dfddd7"/></linearGradient><linearGradient id="vg2" x1="0" x2="0" y1="0" y2="1"><stop offset="0" stop-color="#dfddd7"/><stop offset="1" stop-color="#cfccc4"/></linearGradient><linearGradient id="vg3" x1="0" x2="0" y1="0" y2="1"><stop offset="0" stop-color="#757350"/><stop offset="1" stop-color="#545336"/></linearGradient><linearGradient id="dg4" x1="0" x2="1" y1="0" y2="1"><stop offset="0" stop-color="#8a5634"/><stop offset="1" stop-color="#5c3420"/></linearGradient><filter id="sh5" x="-50%" y="-50%" width="200%" height="200%"><feGaussianBlur stdDeviation="15.6"/></filter><linearGradient id="dg6" x1="0" x2="1" y1="0" y2="1"><stop offset="0" stop-color="#dbcfb9"/><stop offset="1" stop-color="#b6ab97"/></linearGradient><filter id="sh7" x="-50%" y="-50%" width="200%" height="200%"><feGaussianBlur stdDeviation="7.68"/></filter></defs><rect width="1200" height="540" fill="url(#vg1)"/><rect y="540" width="1200" height="360" fill="url(#vg2)"/>
  <rect y="539" width="1200" height="2" fill="#ffffff" opacity="0.25"/><ellipse cx="480" cy="806" rx="330" ry="26" fill="#2a241c" opacity="0.28" filter="url(#sh5)"/>
  <path d="M320 506 C330 350 630 350 640 506" fill="none" stroke="url(#dg4)" stroke-width="22" stroke-linecap="round"/>
  <path d="M200 770 Q180 635 230 500 L730 500 Q780 635 760 770 Q754 800 720 800 L240 800 Q206 800 200 770 Z" fill="url(#vg3)"/>
  <path d="M230 522 L730 522" stroke="#2d2a26" stroke-width="5"/>
  <path d="M230 522 L730 522" stroke="#bfa57a" stroke-width="2" stroke-dasharray="3 3"/>
  <rect x="660" y="514" width="16" height="44" rx="4" fill="#bfa57a"/>
  <rect x="308" y="504" width="32" height="70" rx="6" fill="url(#dg4)"/>
  <rect x="620" y="504" width="32" height="70" rx="6" fill="url(#dg4)"/>
  <path d="M204 760 Q190 635 234 508 L270 508 Q230 635 244 790 Z" fill="url(#dg4)" opacity="0.92"/>
  <path d="M756 760 Q770 635 726 508 L690 508 Q730 635 716 790 Z" fill="url(#dg4)" opacity="0.92"/>
  <path d="M300 665 q 60 20 140 -6" stroke="#515034" stroke-width="2" fill="none" opacity="0.4"/>
  <path d="M560 710 q 50 -16 110 8" stroke="#89886a" stroke-width="2" fill="none" opacity="0.35"/><ellipse cx="930" cy="823.2" rx="193.60000000000002" ry="12.8" fill="#2a241c" opacity="0.24" filter="url(#sh7)"/>
  <path d="M770 604 H1090 Q1106 604 1106 628 V804 Q1106 820 1082 820 H778 Q754 820 754 804 V628 Q754 604 770 604 Z" fill="url(#dg6)"/>
  <path d="M766.8 624.8 H1093.2" stroke="#2f2b27" stroke-width="6.4"/>
  <path d="M766.8 624.8 H1093.2" stroke="#c7b28a" stroke-width="2.4000000000000004" stroke-dasharray="2.4000000000000004 2.4000000000000004"/>
  <rect x="1032.4" y="616.8" width="38.400000000000006" height="16" rx="3.2" fill="#b49a6a"/>
  <path d="M1070.8 624.8 q 32 3.2 36.800000000000004 32" stroke="#7c5236" stroke-width="8" fill="none" stroke-linecap="round"/>
  <rect x="782.8" y="764" width="96" height="28.8" rx="3.2" fill="#a39987" opacity="0.35"/></svg>
